<?xml version="1.0" standalone="no"?>
<!DOCTYPE svg PUBLIC "-//W3C//DTD SVG 1.1//EN" "http://www.w3.org/Graphics/SVG/1.1/DTD/svg11.dtd" >
<svg xmlns="http://www.w3.org/2000/svg">
<metadata>
This is a custom SVG webfont generated by Font Squirrel.
Copyright   : Copyright c 2011 Rodrigo Fuenzalida hellorfuenzalidacom with Reserved Font Name Titan One
Designer    : Rodrigo Fuenzalida
Foundry     : Rodrigo Fuenzalida
Foundry URL : wwwrfuenzalidacom
</metadata>
<defs>
<font id="TitanOneRegular" horiz-adv-x="1132" >
<font-face units-per-em="2048" ascent="1638" descent="-410" />
<missing-glyph horiz-adv-x="460" />
<glyph unicode=" "  horiz-adv-x="460" />
<glyph unicode="&#x09;" horiz-adv-x="460" />
<glyph unicode="&#xa0;" horiz-adv-x="460" />
<glyph unicode="!" horiz-adv-x="679" d="M63 1434q-2 23 117 36t278.5 13t159.5 -47q0 -59 -36 -987q-2 -51 -74 -92.5t-203 -41.5q-178 0 -186 97zM96 18q0 184 250 184.5t250 -184.5q0 -104 -66.5 -144t-186.5 -40t-183.5 35.5t-63.5 148.5z" />
<glyph unicode="&#x22;" horiz-adv-x="1069" d="M61 1413q0 113 39 148.5t160 35.5t167 -32.5t46 -151.5q0 -518 -206 -518t-206 518zM596 1413q0 113 39 148.5t159.5 35.5t167 -32.5t46.5 -151.5q0 -518 -206 -518t-206 518z" />
<glyph unicode="#" horiz-adv-x="1667" d="M20 412.5q0 70.5 45.5 143.5t88.5 73h114l54 196h-127q-23 0 -39.5 38t-16.5 108.5t45 143.5t88 73h148q16 66 43 158q31 111 315 110q106 0 107 -72q0 -12 -49 -196h215q16 66 43 158q31 111 315 110q106 0 107 -72q0 -12 -50 -196h127q53 0 54 -133q0 -68 -43 -149 t-82 -81h-154l-53 -196h160q53 0 53 -133q0 -68 -43 -149t-82 -81h-184l-48 -176q-25 -90 -325 -90q-45 0 -64.5 27.5t-19.5 58.5t39 180h-213l-47 -176q-25 -90 -326 -90q-45 0 -64.5 27.5t-19.5 58.5t39 180h-94q-23 0 -39.5 38t-16.5 108.5zM684 629h215l53 196h-215z " />
<glyph unicode="$" horiz-adv-x="1359" d="M61 162q0 115 33 238.5t78 123.5q8 0 170 -55t244 -55t106.5 17.5t24.5 50t-45 56t-112.5 38t-146.5 45t-146.5 71.5t-112.5 121t-45 186q0 377 372 441v26q0 47 78 89t205 42q98 0 127 -41q20 -29 20 -53v-61q231 -25 322 -86q37 -25 37 -47q0 -106 -50.5 -229.5 t-97.5 -123.5q-8 0 -53 19q-135 59 -224 59t-121 -16.5t-32 -50t45 -52t111.5 -32t145.5 -44t146.5 -73.5t112.5 -128t45 -173t-16 -145.5t-56 -119t-121 -109.5t-194 -71v-32q0 -47 -77.5 -89t-204.5 -42q-98 0 -127 41q-20 29 -21 53v61q-133 12 -231 39q-189 52 -189 111 z" />
<glyph unicode="%" horiz-adv-x="1996" d="M61 1073q0 236 123 316q104 68 275 67q168 0 276 -67q123 -80 123 -316q0 -244 -117 -325q-106 -74 -282 -74q-90 0 -156.5 16.5t-124.5 57.5q-117 83 -117 325zM406 1063.5q0 -191.5 53 -191.5q16 0 26 13q27 29 27 145.5t-8 160.5t-18.5 54t-26.5 10q-53 0 -53 -191.5z M479 53q0 4 4 17l725 1282q18 33 33.5 50t56.5 34.5t103 17.5q127 0 127 -55q0 -10 -4 -19l-733 -1290q-25 -43 -68 -66.5t-143.5 -23.5t-100.5 53zM1139 379q0 236 123 313q104 70 274 70q168 0 276 -70q123 -78 123 -313q0 -244 -116 -326q-106 -74 -283 -73 q-90 0 -156.5 16t-124.5 57q-116 84 -116 326zM1483 369.5q0 -191.5 53 -191.5q16 0 27 10q27 31 26.5 148t-8.5 161t-18.5 54t-26.5 10q-53 0 -53 -191.5z" />
<glyph unicode="&#x26;" horiz-adv-x="1589" d="M61 420q0 182 119 295q27 27 64 49q-6 4 -17.5 10t-40 33t-51.5 59q-55 86 -55 207q0 383 590 383q166 0 284.5 -23.5t169 -56.5t50.5 -67q0 -57 -39 -194.5t-86 -137.5q-10 0 -119 32.5t-198 32.5t-89 -61q0 -53 78 -68q80 -16 194 -16h551q92 0 93 -156 q0 -74 -17.5 -134t-38.5 -60h-102v-60q0 -268 -19 -294q-145 -211 -714 -211q-283 0 -445 106.5t-162 331.5zM643 457q0 -61 111 -62q51 0 112 15l2 22v113q-225 -4 -225 -88z" />
<glyph unicode="'" horiz-adv-x="534" d="M61 1413q0 113 39 148.5t160 35.5t167 -32.5t46 -151.5q0 -518 -206 -518t-206 518z" />
<glyph unicode="(" horiz-adv-x="921" d="M72 604q0 442 186 656.5t516 214.5q86 0 86 -101q0 -82 -15.5 -152.5t-49.5 -70.5q-86 0 -131.5 -145.5t-45.5 -412.5t47.5 -420t114.5 -153q41 0 58.5 -45t17.5 -126.5t-12.5 -117.5t-48.5 -36q-723 0 -723 909z" />
<glyph unicode=")" horiz-adv-x="921" d="M61 1374q0 100 86 101q330 0 516.5 -214t186.5 -657q0 -909 -723 -909q-37 0 -49 36t-12 117q0 172 75 172q68 0 115 153t47 420t-45 412.5t-131 145.5q-35 0 -50.5 70.5t-15.5 152.5z" />
<glyph unicode="*" horiz-adv-x="1142" d="M31 1124q0 68 34.5 142.5t96.5 74.5q43 0 109.5 -33.5t154.5 -99.5q-14 197 -14 265.5t29.5 96t125 27.5t130 -25.5t34.5 -117.5q0 -33 -14.5 -131t-20.5 -115q23 14 37.5 23.5t35.5 21.5l43 25q22 12 46.5 24.5t46.5 20.5q45 20 80 20q59 0 93 -73.5t34 -143.5 q0 -49 -87 -83.5t-173 -47.5l-86 -10q217 -178 217 -262q0 -49 -74.5 -107.5t-126.5 -58.5q-80 0 -211 305q-43 -121 -104 -211t-109.5 -90t-121 54.5t-72.5 96.5t48 107.5t144 163.5h-9q-9 0 -81.5 12.5t-153.5 47t-81 81.5z" />
<glyph unicode="+" d="M61 535.5q0 70.5 45.5 143.5t88.5 73h190v229q0 39 68.5 65.5t143.5 26.5t113 -16.5t38 -38.5v-266h270q53 0 53 -134q0 -68 -43 -148.5t-82 -80.5h-198v-242q0 -35 -77 -59.5t-153 -24.5q-133 0 -133 54v272h-268q-23 0 -39.5 38t-16.5 108.5z" />
<glyph unicode="," horiz-adv-x="600" d="M82 215q0 76 43 126t174 50t175 -51t44 -156q0 -498 -336 -497q-31 0 -60.5 73.5t-29.5 116.5t14 43q41 0 68 19.5t33 40.5l6 20q-82 0 -117 98q-14 41 -14 117z" />
<glyph unicode="-" d="M61 535.5q0 70.5 45.5 143.5t88.5 73h823q53 0 53 -134q0 -68 -43 -148.5t-82 -80.5h-829q-23 0 -39.5 38t-16.5 108.5z" />
<glyph unicode="." horiz-adv-x="600" d="M82 192.5q0 120.5 56.5 160.5t163 40t161.5 -40t55 -160.5t-55 -165.5t-162.5 -45t-163 45t-55.5 165.5z" />
<glyph unicode="/" horiz-adv-x="856" d="M51 86q0 31 332 1260q31 111 315 110q106 0 107 -72q0 -12 -344 -1294q-25 -90 -326 -90q-45 0 -64.5 27.5t-19.5 58.5z" />
<glyph unicode="0" horiz-adv-x="1486" d="M61 737q0 442 195 600q96 78 211 109t275.5 31t276.5 -31t212 -109q195 -158 194 -600q0 -459 -186 -616q-94 -80 -210 -109.5t-286 -29.5t-285.5 29.5t-209.5 109.5q-187 157 -187 616zM659 721q0 -330 41 -391q16 -27 44 -27t44.5 27.5t26.5 122t10 268.5t-10 271.5 t-26.5 129t-44 31.5t-44.5 -31q-41 -69 -41 -401z" />
<glyph unicode="1" horiz-adv-x="927" d="M31 1083.5q0 149.5 35 270.5q10 39 216.5 71.5t317.5 32.5t147.5 -8t55 -19.5t28.5 -25.5q14 -23 15 -43v-1313q0 -23 -125 -36t-250 -13t-161 11.5t-36 37.5v885h-208q-35 0 -35 149.5z" />
<glyph unicode="2" horiz-adv-x="1257" d="M61 1319q0 29 63.5 64.5t192.5 64.5t281 29q588 0 588 -412q0 -115 -49.5 -215t-108.5 -160.5t-139 -111.5q-92 -57 -176 -91h409q12 0 26.5 -11t31 -65.5t16.5 -135t-10 -135t-25 -79.5q-31 -55 -55 -59l-10 -2h-897q-129 0 -129 403q0 45 266 248q100 74 184 162 t84 143q0 61 -92 61.5t-193.5 -46.5t-115.5 -47q-57 0 -99.5 135t-42.5 260z" />
<glyph unicode="3" horiz-adv-x="1247" d="M61 113q0 113 25 198.5t55.5 121.5t59.5 36q8 0 108.5 -37t197.5 -37t97 62q0 84 -207 90q-82 2 -90 4q-43 14 -43 180t43 182q8 4 90 5q207 4 207 83q0 61 -89 61.5t-197.5 -42.5t-118.5 -43q-47 0 -86 137t-39 195q0 53 119 108q131 59 385 60q590 0 589 -383 q0 -207 -163 -310q23 -10 58.5 -49t59.5 -78q63 -100 64 -237q0 -225 -162 -331.5t-444 -106.5q-139 0 -263 23.5t-190 53t-66 54.5z" />
<glyph unicode="4" horiz-adv-x="1265" d="M31 641q0 39 167 334t230 387q25 35 184.5 65.5t311.5 30.5q260 0 260 -96v-1313q0 -23 -125 -36t-250 -13t-161 11.5t-36 37.5v252h-512q-69 0 -69 340zM506 621h141l2 446z" />
<glyph unicode="5" horiz-adv-x="1251" d="M61 137q0 133 37 240.5t82 107.5q12 0 131 -50t176.5 -50t89 18.5t31.5 49.5q0 113 -415 133q-72 4 -72 438t67 434h906q53 0 53 -164q0 -98 -19.5 -215.5t-66.5 -117.5h-574v-93q395 0 566 -127q137 -104 137 -307t-151.5 -327.5t-485.5 -124.5q-217 0 -354.5 49 t-137.5 106z" />
<glyph unicode="6" horiz-adv-x="1355" d="M61 732q0 396 154 571.5t467 175.5q215 0 373.5 -32t158.5 -75q0 -53 -39.5 -186t-72.5 -133q-10 0 -62 10q-139 29 -253.5 29t-147.5 -56.5t-33 -165.5q8 10 26.5 25.5t98.5 42.5t181.5 27t172 -30t110.5 -75t62 -112q37 -111 37 -225.5t-9 -173t-45 -130.5t-96.5 -121 t-172 -82.5t-260.5 -33.5q-322 0 -486 177t-164 573zM618 490.5q0 -220.5 60 -220.5q63 0 63 220.5t-63 220.5q-60 0 -60 -220.5z" />
<glyph unicode="7" horiz-adv-x="1103" d="M20 1186q0 78 21.5 175t69.5 97h823q100 0 127 -45q23 -35 22.5 -91t-47.5 -271t-121.5 -528.5t-107.5 -473.5q-6 -23 -136 -36t-257 -13t-162 11.5t-35 37.5q0 43 277 914h-420q-29 0 -45 98q-9 47 -9 125z" />
<glyph unicode="8" horiz-adv-x="1349" d="M61 459q0 215 99 323q-27 31 -49.5 108t-22.5 152q0 236 149.5 335.5t436.5 99.5t437.5 -99.5t150.5 -335.5q0 -76 -22.5 -152.5t-49.5 -107.5q98 -109 98 -323q0 -477 -613.5 -477t-613.5 477zM608 444.5q0 -102.5 16.5 -134t50.5 -31.5t49 31.5t15 134t-15 136 t-49 33.5t-50.5 -33.5t-16.5 -136zM608 1056q0 -122 68 -122q63 0 63 122t-63 122q-68 0 -68 -122z" />
<glyph unicode="9" horiz-adv-x="1355" d="M61 981q0 176 115 322q61 80 182 128t287 48q326 0 487.5 -168t161.5 -575.5t-151.5 -580.5t-468.5 -173q-221 0 -377 27.5t-156 70.5q0 51 40 184t73 133q10 0 61 -8q150 -20 259.5 -20t142.5 58t33 155q-29 -23 -126.5 -44.5t-203.5 -21.5q-176 0 -267.5 128t-91.5 337 zM614 980q0 -210 64 -210q59 0 59 210t-59 210q-64 0 -64 -210z" />
<glyph unicode=":" horiz-adv-x="600" d="M82 192.5q0 120.5 56.5 160.5t163 40t161.5 -40t55 -160.5t-55 -165.5t-162.5 -45t-163 45t-55.5 165.5zM82 857q0 122 56.5 162t163 40t161.5 -40t55 -162t-55 -166t-162.5 -44t-163 44t-55.5 166z" />
<glyph unicode=";" horiz-adv-x="600" d="M82 215q0 76 43 126t174 50t175 -51t44 -156q0 -498 -336 -497q-31 0 -60.5 73.5t-29.5 116.5t14 43q53 0 87 37q20 23 20 43q-45 4 -86 41q-18 18 -31.5 58t-13.5 116zM82 857q0 122 56.5 162t163 40t161.5 -40t55 -162t-55 -166t-162.5 -44t-163 44t-55.5 166z" />
<glyph unicode="&#x3c;" horiz-adv-x="741" d="M31 581.5q0 36.5 50 143t112.5 226.5t70.5 139.5t31.5 41t93.5 39t180.5 17.5t110.5 -72q0 -43 -240 -526q240 -492 240 -541t-107 -49q-170 0 -228 18.5t-87 62.5t-128 254t-99 246.5z" />
<glyph unicode="=" d="M61 298q0 71 45.5 143.5t88.5 72.5h823q53 0 53 -133q0 -68 -43 -148.5t-82 -80.5h-829q-23 0 -39.5 37.5t-16.5 108.5zM61 795.5q0 70.5 45.5 143.5t88.5 73h823q53 0 53 -133q0 -68 -43 -149t-82 -81h-829q-23 0 -39.5 38t-16.5 108.5z" />
<glyph unicode="&#x3e;" horiz-adv-x="741" d="M61 53.5q0 18.5 59.5 153.5t180.5 383q-240 481 -240 526q0 72 250 72q123 0 172 -111q2 -6 66 -127q162 -311 162 -358t-99.5 -257t-127 -253t-64.5 -62.5t-128 -19.5t-148.5 7t-70 17.5t-12.5 29z" />
<glyph unicode="?" horiz-adv-x="1226" d="M41 1300q0 29 63.5 65t192.5 63.5t281 27.5q588 0 587 -409q0 -117 -48 -202t-116 -124q-137 -76 -251 -78l-48 -2q0 -23 10.5 -72t10.5 -86q0 -33 -111.5 -50t-193.5 -17q-125 0 -155 61.5t-30 259.5q0 47 177 70q66 10 120 43t54 90t-92.5 57t-193.5 -47t-116 -47 q-57 0 -99 136t-42 261zM217 161.5q0 184.5 287 184.5q139 0 213 -36t74 -148q0 -184 -287 -184.5t-287 184z" />
<glyph unicode="@" horiz-adv-x="1609" d="M82 735q0 195 44 335t109.5 217t169 121t194.5 55.5t214 11.5q362 0 538.5 -171t176.5 -477q0 -332 -172 -409q-57 -27 -101.5 -32t-109.5 -5q-262 0 -262 100h-9q-31 -109 -163 -108q-272 0 -273 213q0 68 38 115t97 69q102 35 215 35h39q0 29 -17 53.5t-59 24.5 t-106.5 -29t-69.5 -29q-20 0 -57 64.5t-37 111.5q0 41 142 68q80 16 183 16t170.5 -23.5t100.5 -54t51.5 -80.5t20.5 -80t2 -75v-225h66q59 0 78.5 50t19.5 160.5t-19.5 194.5t-70.5 158q-100 145 -416 145q-317 0 -418 -141q-51 -74 -68.5 -158t-17.5 -199.5t6 -179 t34 -143.5t79 -125t149.5 -76.5t237.5 -31.5q23 0 43 -50.5t20 -95.5q0 -76 -63 -75q-289 0 -438 86q-139 78 -209 225q-82 172 -82 444zM760 625q0 -78 34.5 -78t34.5 24v140q-31 0 -50 -26.5t-19 -59.5z" />
<glyph unicode="A" horiz-adv-x="1511" d="M20 98q0 49 182.5 628t209.5 667q10 27 164.5 44t331.5 17t196 -61q387 -1286 387 -1306.5t-25 -41.5q-57 -45 -227 -45q-362 0 -371 86l-14 133h-197l-10 -115q-4 -59 -62.5 -81.5t-210 -22.5t-253 27.5t-101.5 70.5zM700 608h111l-31 369h-45z" />
<glyph unicode="B" horiz-adv-x="1443" d="M82 59v1317q0 98 592 99q340 0 469 -66q131 -68 168 -172q20 -61 20 -143q0 -160 -54 -240t-118 -90q96 -20 159.5 -94t63.5 -250q0 -205 -125 -303q-109 -86 -331 -109q-94 -8 -224 -8h-448q-102 0 -137 14t-35 45zM653 305h52q104 0 104 139q0 70 -27.5 104t-62.5 34 h-66v-277zM653 893h52q104 0 104 139q0 70 -27.5 103.5t-62.5 33.5h-66v-276z" />
<glyph unicode="C" horiz-adv-x="1343" d="M61 721q0 186 58.5 329.5t141.5 221.5t190 125q172 78 346 78q250 0 358 -41q49 -18 88 -57.5t39 -113t-36 -186t-103 -112.5q-20 0 -151.5 32.5t-178.5 32.5q-72 0 -122 -80t-50 -227.5t44 -229t116 -81.5q51 0 185 42t157 42q63 0 99 -117t36 -188.5t-44 -113.5 t-126 -61.5t-167 -26.5t-166 -7t-125 4t-115.5 20.5t-131 45t-126 83.5t-111.5 131q-105 176 -105 455z" />
<glyph unicode="D" horiz-adv-x="1497" d="M82 61v1293q0 53 45 76.5t156 23.5h460q393 0 543 -154.5t150 -562t-156 -572.5t-545 -165h-483q-100 0 -135 14t-35 47zM653 313l78 -8q61 0 93 98.5t32 340t-32.5 323.5t-104.5 82q-49 0 -66 -8v-828z" />
<glyph unicode="E" horiz-adv-x="1249" d="M82 59v1297q0 53 48 75.5t173 22.5h823q43 0 43 -142.5t-18 -217t-49 -74.5q-133 0 -449 27v-138q303 12 396 13q55 0 55 -129t-21.5 -196t-58.5 -67l-371 9v-131q356 27 492 26q43 0 43 -143.5t-18.5 -217t-49.5 -73.5h-868q-100 0 -135 14t-35 45z" />
<glyph unicode="F" horiz-adv-x="1200" d="M82 59v1299q0 53 53 75.5t201 22.5h760q43 0 43 -154.5t-19.5 -235.5t-50.5 -81l-416 21v-140q272 12 365 13q31 0 42 -33t11 -126t-20.5 -178t-57.5 -85l-340 12v-410q0 -31 -132 -45t-250.5 -14t-153.5 14t-35 45z" />
<glyph unicode="G" horiz-adv-x="1380" d="M61 698q0 190 51.5 336t129 226.5t186.5 132t203 67t200 15.5q246 0 346.5 -42t100.5 -161q0 -94 -35 -204t-102 -110q-16 0 -139 32t-185 32q-176 0 -176 -297q0 -150 41 -222.5t102 -80.5v184q0 51 104.5 94t201 43t140.5 -12t60 -35q29 -37 29 -65v-568 q0 -27 -107.5 -43t-223.5 -16t-146.5 11.5t-34.5 62.5l-14 121h-17q-14 -88 -72.5 -151.5t-177.5 -63.5q-70 0 -129 14t-123.5 60t-109.5 122q-103 172 -103 518z" />
<glyph unicode="H" horiz-adv-x="1488" d="M82 59v1260q0 51 118.5 93t258.5 42q195 0 194 -92v-451h183v408q0 51 119.5 93t258.5 42q193 0 193 -92v-1303q0 -27 -125 -43t-250 -16t-160.5 14.5t-35.5 44.5v469h-183v-469q0 -27 -123.5 -43t-249.5 -16t-162 14t-36 45z" />
<glyph unicode="I" horiz-adv-x="735" d="M82 49v1274q0 45 118.5 89t266.5 44q131 0 172 -55q14 -20 14 -41v-1311q0 -23 -125 -36t-250.5 -13t-160.5 11t-35 38z" />
<glyph unicode="J" horiz-adv-x="839" d="M20 -49q0 168 86 168q27 0 41 8q39 18 39 127v1067q0 45 118 89t251 44q203 0 203 -96v-1133q0 -141 -12.5 -225t-52.5 -152.5t-116.5 -96t-174 -27.5t-142.5 3t-95 16t-79 36q-66 55 -66 172z" />
<glyph unicode="K" horiz-adv-x="1452" d="M82 63v1256q0 53 115.5 94t267.5 41q125 0 162 -49q27 -35 26 -64v-337h17q0 10 61 170q117 301 170 301q100 0 283 -60q88 -29 151.5 -83t63.5 -120q0 -41 -83 -158.5t-251 -314.5q39 -41 98.5 -104.5t158.5 -189.5t99 -179t-96 -123.5t-204.5 -114.5t-162.5 -44 q-35 0 -95 105.5t-146 316.5l-64 -76v-267q0 -27 -126 -43t-250.5 -16t-159.5 14t-35 45z" />
<glyph unicode="L" horiz-adv-x="1114" d="M82 49v1274q0 45 118.5 89t266.5 44q131 0 172 -55q14 -20 14 -41v-907q250 16 377 16q43 0 43 -136t-18.5 -234.5t-48.5 -98.5h-752q-102 0 -137 11t-35 38z" />
<glyph unicode="M" horiz-adv-x="1802" d="M82 59v1293q0 47 126 74.5t269.5 27.5t204.5 -37t72 -78l139 -540h18l131 516q14 55 134 97t263.5 42t212 -22.5t68.5 -57.5v-1315q0 -27 -116.5 -43t-284.5 -16t-168 59q0 162 35 576h-19l-106 -535q-6 -31 -50 -45t-132 -14t-107.5 12.5t-26.5 46.5l-110 535h-19 q37 -422 37 -576q0 -53 -256 -59h-148q-97 0 -132 14t-35 45z" />
<glyph unicode="N" horiz-adv-x="1503" d="M82 59v1258q0 51 117.5 94t267.5 43q53 0 80 -4q70 -10 98 -88l197 -528h8v483q0 51 116.5 94t266.5 43q129 0 164 -49q25 -35 24 -64v-1282q0 -27 -126 -43t-276.5 -16t-164.5 39l-190 504h-11v-484q0 -27 -126 -43t-250.5 -16t-159.5 14t-35 45z" />
<glyph unicode="O" horiz-adv-x="1548" d="M51 748q0 193 56.5 336t156.5 227q197 164 510 164q162 0 282 -29t226 -105q215 -156 215 -593q0 -393 -194.5 -579.5t-528.5 -186.5q-170 0 -292 31.5t-224 113.5q-207 162 -207 621zM649 731q0 -174 16.5 -271.5t41 -127t67.5 -29.5t67.5 29.5t41 127t16.5 271.5 t-16.5 268.5t-41 123t-67.5 28.5t-67.5 -28.5t-41 -123t-16.5 -268.5z" />
<glyph unicode="P" horiz-adv-x="1447" d="M82 59v1317q0 98 590 99q356 0 471 -50q139 -57 188 -155q66 -127 66 -326q0 -272 -94 -395q-68 -90 -135.5 -116.5t-111.5 -38t-110 -17.5q-90 -8 -246 -8l-49 2v-312q0 -27 -125 -43t-249.5 -16t-159.5 14t-35 45zM653 711h49q39 0 61.5 11t40 61.5t17.5 141.5 t-19.5 139t-39 57t-45.5 9h-64v-419z" />
<glyph unicode="Q" horiz-adv-x="1527" d="M41 764q0 188 56.5 327.5t156.5 221.5q199 162 510 162q129 0 228.5 -16.5t196.5 -62.5t159 -122q139 -170 139 -483.5t-92 -494.5t-258 -247q92 -152 92 -176q0 -45 -45 -77t-115 -46q-129 -27 -217 -26.5t-122 17.5t-56 71l-88 188q-250 0 -397.5 185.5t-147.5 578.5z M639 781.5q0 -283.5 30.5 -381t94 -97.5t94.5 97.5t31 307.5t-16.5 301t-41 116.5t-67.5 25.5t-68 -25q-57 -61 -57 -344.5z" />
<glyph unicode="R" horiz-adv-x="1466" d="M82 59v1317q0 53 134 76t339 23t265.5 -1t142 -7.5t130 -20.5t106.5 -37t91 -58.5t64 -84.5q55 -88 55 -251t-54.5 -274.5t-144.5 -169.5q236 -371 236 -471t-404 -100q-117 0 -161.5 10t-57.5 45l-133 422l-35 2v-420q0 -27 -124.5 -43t-250.5 -16t-162 14t-36 45z M655 795h54q119 0 118 184q0 94 -31.5 133t-72.5 39h-68v-356z" />
<glyph unicode="S" horiz-adv-x="1339" d="M51 141q0 115 33 239t78 124q8 0 170 -55.5t243.5 -55.5t106.5 17.5t25 50.5t-45.5 58.5t-113 45t-146 56t-146.5 82t-113 128t-45 189.5q0 455 543 455q203 0 350.5 -26t208 -57.5t60.5 -62.5q0 -106 -50.5 -229t-97.5 -123q-8 0 -53 18q-135 59 -224.5 59.5t-121 -16 t-31.5 -50.5t45 -55.5t111.5 -38.5t145.5 -53t146.5 -84t112.5 -136.5t45 -204.5q0 -123 -63 -223q-39 -61 -100.5 -106.5t-171 -75t-282.5 -29.5t-329 28.5t-223.5 63t-67.5 67.5z" />
<glyph unicode="T" horiz-adv-x="1333" d="M41 1158q0 114 24.5 205t65.5 91h1108q31 0 42 -57.5t11 -166t-22.5 -204.5t-61.5 -96h-256v-881q0 -23 -126 -36t-251.5 -13t-159.5 11.5t-34 37.5v881h-285q-23 0 -39 57t-16 171z" />
<glyph unicode="U" horiz-adv-x="1486" d="M82 571v752q0 51 115.5 92t269.5 41q123 0 160 -47q27 -37 26 -63v-611q0 -231 17.5 -306t75 -75t73 73t15.5 310v586q0 51 115.5 92t267.5 41q129 0 163 -47q25 -37 25 -63v-775q0 -295 -169 -441t-489.5 -146t-492.5 146t-172 441z" />
<glyph unicode="V" horiz-adv-x="1488" d="M20 1309q0 25 53.5 58.5t151 60t212 26.5t167.5 -32.5t58 -71.5l71 -746h29l63 727q6 57 139.5 90t248 33t170 -19.5t70.5 -40t15 -38t-29.5 -96t-62.5 -168.5q-109 -287 -366 -1029q-23 -63 -353 -63q-102 0 -135 14.5t-45 48.5q-121 348 -289 791t-168 455z" />
<glyph unicode="W" horiz-adv-x="2080" d="M20 1313q0 39 146.5 90t296.5 51q193 0 205 -121l69 -649h29l57 649q10 121 277 121q102 0 137 -27.5t39 -72.5l67 -670h29l53 649q6 59 140.5 90t266.5 31t180 -39t48 -82l-438 -1270q-23 -63 -303 -63q-84 0 -112.5 14.5t-39.5 48.5l-106 357h-25l-108 -357 q-18 -63 -283 -63q-98 0 -129 14.5t-43 48.5z" />
<glyph unicode="X" horiz-adv-x="1476" d="M20 100q0 29 85 187.5t257 449.5q-307 578 -307 606q0 45 130 78t237.5 33t176.5 -32.5t75 -65.5l80 -363h10l57 359q2 14 49.5 38.5t126 44t182 19.5t173 -24.5t69.5 -92.5q0 -35 -73.5 -202.5t-223.5 -466.5q332 -539 332 -568q0 -100 -244 -100q-362 0 -389 98 l-80 285h-12l-65 -285q-23 -98 -238 -98q-150 0 -279 25.5t-129 74.5z" />
<glyph unicode="Y" horiz-adv-x="1429" d="M20 1317q0 43 137.5 90t288.5 47q195 0 207 -115l56 -551h22l39 537q4 57 145.5 93t268.5 36t176 -37t49 -78q0 -39 -412 -923v-357q0 -27 -124.5 -43t-248.5 -16t-161 13.5t-37 45.5v357q-406 829 -406 901z" />
<glyph unicode="Z" horiz-adv-x="1284" d="M41 377q0 31 114.5 168t346.5 383h-398q-55 0 -55 178q0 125 26.5 236.5t67.5 111.5h944q104 0 105 -416q0 -37 -108.5 -170t-325.5 -360h432q23 0 38 -60.5t15 -170t-25.5 -193.5t-68.5 -84h-997q-59 0 -85 119t-26 258z" />
<glyph unicode="[" horiz-adv-x="962" d="M102 -244v1649q0 27 35 38t137 11h519q31 0 49 -57.5t18 -130.5q0 -137 -43 -138q-113 0 -215 17v-1129q88 16 215 17q43 0 43 -137q0 -74 -18.5 -131.5t-48.5 -57.5h-519q-102 0 -137 11t-35 38z" />
<glyph unicode="\" horiz-adv-x="753" d="M0 1384q0 72 270 72q57 0 98.5 -32.5t53.5 -77.5q332 -1229 332 -1256q0 -90 -248 -90q-57 0 -104.5 25.5t-57.5 64.5q-344 1282 -344 1294z" />
<glyph unicode="]" horiz-adv-x="962" d="M102 -104q0 137 43 137q113 0 215 -17v1129q-88 -16 -215 -17q-43 0 -43 138q0 74 18.5 131t49.5 57h518q102 0 137 -11t35 -38v-1649q0 -27 -34.5 -38t-137.5 -11h-518q-31 0 -49.5 57.5t-18.5 131.5z" />
<glyph unicode="^" horiz-adv-x="901" d="M82 1434q0 23 150.5 93t223 70t218 -69.5t145.5 -93.5q0 -72 -22.5 -128.5t-59.5 -56.5q-29 0 -286 80q-260 -80 -287 -80q-37 0 -59.5 56.5t-22.5 128.5z" />
<glyph unicode="_" horiz-adv-x="1214" d="M31 -193q0 74 29.5 123.5t72.5 49.5h997q16 0 27 -7q27 -16 27 -94t-23.5 -127t-60.5 -49h-1014q-55 0 -55 104z" />
<glyph unicode="`" horiz-adv-x="778" d="M102 1327q0 115 48.5 192.5t95.5 77.5q125 0 277.5 -60t152.5 -124.5t-32 -114t-71 -49.5q-117 0 -294 23.5t-177 54.5z" />
<glyph unicode="a" horiz-adv-x="1359" d="M61 346q0 96 46.5 168t112 111t153.5 63q133 35 293 35h67q0 84 -57 119q-25 14 -75 14t-120.5 -26.5t-118 -54t-63.5 -27.5q-37 0 -100.5 97t-63.5 177q0 27 76 70t214 78.5t269 35.5t226.5 -21.5t156 -52t102.5 -82t63.5 -92t31.5 -106.5q14 -76 14 -186v-617 q0 -23 -109.5 -36t-217 -13t-139 6t-38 14.5t-10.5 28.5l-16 117h-17q-51 -184 -280 -184q-186 0 -293 88q-43 37 -75 108.5t-32 167.5zM616 414q0 -135 62 -135q27 0 42 13t15 30v239q-53 0 -86 -45t-33 -102z" />
<glyph unicode="b" horiz-adv-x="1368" d="M72 106v1299q0 45 120.5 88t253.5 43q180 0 181 -94v-232l-23 -141h17q12 18 45.5 45t70.5 45q90 47 198.5 47t171 -27.5t100.5 -71.5t61 -112q39 -117 39 -290q0 -289 -65.5 -442.5t-213 -217t-416 -63.5t-428.5 38q-112 29 -112 86zM625 283h63q66 0 66 314t-68 314 h-61v-628z" />
<glyph unicode="c" horiz-adv-x="1126" d="M51 594q0 147 47 263t115 179.5t156 104.5q141 66 282 65q238 0 331 -36.5t93 -125t-31.5 -187.5t-82.5 -99q-16 0 -99.5 34.5t-144 34.5t-92 -48t-31.5 -186t28.5 -188.5t89 -50.5t150.5 41t101 41q39 0 74.5 -92t35.5 -164q0 -111 -114.5 -154.5t-310 -43.5t-312.5 53 q-49 23 -105.5 67.5t-93.5 106.5q-86 147 -86 385z" />
<glyph unicode="d" horiz-adv-x="1359" d="M51 625q0 285 104.5 433t286.5 148q186 0 271 -88q18 -20 28 -49h17l-25 141v256q0 45 115 88t248 43q139 0 178 -53q14 -20 14 -41v-1454q0 -23 -113.5 -36t-219 -13t-135 7t-37 15.5t-9.5 26.5l-16 117h-17q-18 -72 -73 -121q-70 -63 -211 -63q-76 0 -141.5 22.5 t-107.5 55t-73 88t-47 105.5t-25 124q-12 109 -12 248zM606 592q0 -170 19.5 -240.5t60.5 -70.5q33 0 49 41v546q0 20 -21.5 31.5t-37.5 11.5q-70 0 -70 -319z" />
<glyph unicode="e" horiz-adv-x="1310" d="M51 563q0 373 195 514q96 72 215 100.5t280 28.5q518 0 519 -360q0 -383 -582 -383h-68q0 -133 127 -133q74 0 193 50t125 50q39 0 102.5 -116.5t63.5 -172.5q0 -80 -164 -120.5t-320.5 -40.5t-262 24.5t-172 62t-117 93t-75 105.5t-38.5 112q-21 90 -21 186zM606 627 q59 0 97 47t38 114q0 123 -63 123q-72 0 -72 -149v-135z" />
<glyph unicode="f" horiz-adv-x="1144" d="M20 862q0 74 26 138.5t67 64.5h67q0 137 40 239.5t96.5 157t136.5 86.5q119 49 270 49q381 0 381 -124q0 -135 -26.5 -221.5t-71.5 -86.5q-18 0 -68.5 13.5t-95.5 13.5q-119 0 -119 -82q0 -20 10 -45h273q55 0 55 -180q0 -80 -23.5 -144.5t-62.5 -64.5h-242v-627 q0 -23 -112.5 -36t-276.5 -13t-164 49v627h-104q-56 0 -56 186z" />
<glyph unicode="g" horiz-adv-x="1349" d="M51 719q0 238 101 364q39 51 115.5 87t164.5 36t145.5 -19.5t86.5 -45.5q57 -57 65 -101l2 -18h17l18 80q20 86 324 86q135 0 163 -41q16 -25 20.5 -46.5t4.5 -64.5v-858q0 -242 -157.5 -368.5t-463.5 -126.5q-324 0 -440 63q-51 29 -51 59q0 49 40 166t75 117 q8 0 57 -14q156 -41 253 -41t131 24.5t34 77.5v119h-17q-8 -10 -28.5 -25.5t-101.5 -42t-182 -26.5t-171 30.5t-108.5 76.5t-61.5 124q-35 121 -35 328zM602 655q0 -119 19.5 -190.5t52.5 -71.5q23 0 37 16.5t14 36.5v422q-8 43 -45 43q-78 0 -78 -256z" />
<glyph unicode="h" horiz-adv-x="1361" d="M72 49v1419q0 43 118.5 86t249.5 43q137 0 174 -51q12 -16 13 -35v-301l-23 -141h14q29 43 91 76q115 61 249 61q195 0 263.5 -124t68.5 -402v-631q0 -23 -119.5 -36t-243.5 -13t-157 11.5t-33 37.5v569q0 154 -12 223.5t-59 69.5q-41 0 -41 -55v-807q0 -23 -119 -36 t-244 -13t-157.5 11t-32.5 38z" />
<glyph unicode="i" horiz-adv-x="716" d="M72 1413q0 184 284 184q135 0 212 -39.5t77 -144.5q0 -184 -286.5 -184t-286.5 184zM80 49v973q0 45 115.5 89t253.5 44q186 0 186 -96v-1010q0 -23 -118 -36t-241.5 -13t-159.5 11t-36 38z" />
<glyph unicode="j" horiz-adv-x="819" d="M0 -109.5q0 132.5 51 138.5q72 10 101.5 36.5t29.5 98.5v858q0 45 116 89t251 44q188 0 188 -96v-875q0 -252 -113.5 -376.5t-312 -124.5t-255 37.5t-56.5 170zM174 1415q0 104 77 143t214 39t210 -35.5t73 -142.5q0 -190 -287 -190t-287 186z" />
<glyph unicode="k" horiz-adv-x="1302" d="M72 49v1417q0 45 115.5 88t248.5 43q188 0 189 -94v-766h26q98 469 146 469q119 0 286.5 -55t167.5 -123q0 -49 -82 -188.5t-170 -227.5q293 -350 293 -415q0 -61 -186 -149.5t-262 -88.5q-37 0 -78 89t-88 267l-53 -63v-203q0 -23 -115 -36t-240 -13t-161.5 11t-36.5 38 z" />
<glyph unicode="l" horiz-adv-x="696" d="M72 49v1417q0 45 115.5 88t248.5 43q188 0 189 -94v-1454q0 -23 -117 -36t-241 -13t-159.5 11t-35.5 38z" />
<glyph unicode="m" horiz-adv-x="2009" d="M72 49v1010q0 43 117.5 86t248.5 43t148 -76l18 -90h14q59 117 197 166q57 18 148 18q180 0 262 -184q27 61 133 122.5t235 61.5q203 0 273.5 -126t70.5 -404v-627q0 -23 -115.5 -36t-239.5 -13t-161 11.5t-37 37.5v567q0 293 -59 293q-14 0 -28.5 -12t-14.5 -43v-805 q0 -23 -115.5 -36t-240.5 -13t-161 11.5t-36 37.5v567q0 227 -29 273q-14 20 -36 20q-39 0 -39 -55v-805q0 -23 -117 -36t-241 -13t-159.5 11t-35.5 38z" />
<glyph unicode="n" horiz-adv-x="1378" d="M72 49v1010q0 43 117.5 86t248.5 43t148 -76l18 -90h14q59 119 205 166q59 18 131 18q207 0 280 -124t73 -402v-631q0 -23 -117 -36t-241 -13t-159.5 11.5t-35.5 37.5v651q0 92 -7.5 121t-13.5 51q-14 39 -51 39q-57 0 -57 -55v-807q0 -23 -116 -36t-240 -13t-160.5 11 t-36.5 38z" />
<glyph unicode="o" horiz-adv-x="1402" d="M51 606q0 328 191 469q178 131 460 131q121 0 207 -11t175.5 -48t143.5 -100.5t89 -175t35 -265.5q0 -311 -176.5 -467.5t-473.5 -156.5q-154 0 -264 26.5t-200 93.5q-187 135 -187 504zM616 592q0 -137 14.5 -211t30 -88t41 -14t41 14t28.5 88t13 185.5t-5 172t-12 93 t-19 51.5q-18 27 -44 26.5t-42.5 -15.5t-31 -90t-14.5 -212z" />
<glyph unicode="p" horiz-adv-x="1357" d="M72 -248v1303q0 43 114.5 88t247.5 45q61 0 96 -14.5t43 -28.5t31 -123h17q4 18 36.5 57t66.5 63.5t97.5 44t148.5 19.5t154.5 -38t103.5 -88t53 -126.5t22.5 -123t3.5 -133.5t-6.5 -172t-22.5 -173t-47 -151.5t-78 -114.5q-94 -102 -276 -102q-66 0 -116 19.5t-75 45.5 q-51 55 -59 98l-2 21h-17l29 -184v-232q0 -23 -118 -36t-241.5 -13t-164.5 11t-41 38zM625 336q0 -53 55 -53q72 0 72 317q0 174 -18.5 243.5t-55.5 69.5t-53 -41v-536z" />
<glyph unicode="q" horiz-adv-x="1357" d="M51 543q0 354 163 508.5t527 154.5q203 0 291 -14t142 -27q113 -27 112 -86v-1327q0 -23 -113.5 -36t-277.5 -13t-164 49v232l25 141h-17q0 -16 -20.5 -45t-48 -47.5t-81.5 -33.5t-142.5 -15t-166 33.5t-120.5 85t-70 130.5q-39 124 -39 310zM606 596q0 -313 70 -313 q16 0 36.5 10t20.5 29v579q-14 8 -61 8q-66 0 -66 -313z" />
<glyph unicode="r" horiz-adv-x="1200" d="M72 49v1010q0 39 113.5 84t247.5 45t151 -74l20 -94h14q29 78 137.5 132t217 54t152.5 -34.5t44 -89t-8 -138.5t-39.5 -182t-83.5 -98q-20 0 -128.5 30.5t-179.5 30.5t-88 -20.5t-17 -57.5v-598q0 -23 -116 -36t-240 -13t-160.5 11t-36.5 38z" />
<glyph unicode="s" horiz-adv-x="1251" d="M51 115q0 84 49.5 196.5t85.5 112.5q20 0 138 -45t199 -45t106.5 10t25.5 40t-41 47.5t-102 23.5t-132 24.5t-132.5 47t-102.5 95t-41 143.5t4.5 115t34 106.5t84 111.5t168 77.5t255 34.5t236.5 -9t149.5 -23.5t88.5 -32.5q59 -31 60 -68q0 -80 -57.5 -184.5 t-91.5 -104.5t-146.5 36t-165.5 36q-86 0 -86 -49q0 -31 58.5 -46t140.5 -31.5t164.5 -46.5t141 -107.5t58.5 -196.5q0 -401 -571 -401q-340 0 -498 65q-80 35 -80 68z" />
<glyph unicode="t" horiz-adv-x="987" d="M20 983q0 82 26 144.5t67 62.5h65v248q0 63 124 102t243 39q186 0 186 -92v-297h152q53 0 53 -154q0 -100 -23.5 -164.5t-60.5 -64.5h-121v-375q0 -55 47 -78.5t83 -23.5t44 -35t8 -105q0 -137 -36.5 -171.5t-167.5 -34.5t-217 17t-164 69q-150 100 -150 417v320h-102 q-23 0 -39.5 47t-16.5 129z" />
<glyph unicode="u" horiz-adv-x="1388" d="M72 514v557q0 41 120.5 79t253.5 38q178 0 179 -92v-521q0 -156 12 -226t61 -70q66 0 66 55v737q0 43 127 80t276.5 37t149.5 -80v-1055q0 -29 -129 -41t-254 -12t-127 33l-21 133h-16q-18 -74 -74 -121q-29 -25 -85 -44t-128 -19q-229 0 -320 118.5t-91 413.5z" />
<glyph unicode="v" horiz-adv-x="1390" d="M10 1042q0 20 59.5 54t162 63t200.5 29q199 0 205 -96l51 -652h27l45 619q4 51 141 90t241.5 39t157 -18.5t66.5 -38t14 -34t-87 -211t-347 -837.5q-20 -49 -334 -49q-98 0 -128.5 11.5t-41.5 37.5q-141 356 -286.5 670.5t-145.5 322.5z" />
<glyph unicode="w" horiz-adv-x="2013" d="M10 1034q0 49 148.5 101.5t285.5 52.5q176 0 183 -94l69 -562h25l24 453q2 51 104.5 90t207 39t157 -25.5t54.5 -62.5l22 -494h23l67 527q6 49 138.5 89t232.5 40t158 -29q94 -45 94 -106q0 -6 -185.5 -500t-191.5 -504q-27 -49 -277.5 -49t-261.5 49l-69 373h-29 l-65 -373q-6 -49 -359 -49q-98 0 -130 11.5t-44 37.5q-381 936 -381 985z" />
<glyph unicode="x" horiz-adv-x="1390" d="M10 80q0 25 86 153.5t260 362.5q-328 446 -327 467q0 39 143 82t241.5 43t153 -23.5t60.5 -52.5l90 -313h18l33 295q2 12 48 33.5t124 41t150 19.5q270 0 270 -92q0 -29 -80 -161t-240 -368q340 -461 340 -487q0 -80 -231 -80q-358 0 -375 78l-80 268h-14l-53 -268 q-16 -78 -182 -78t-300.5 19.5t-134.5 60.5z" />
<glyph unicode="y" horiz-adv-x="1353" d="M72 778v283q0 43 120.5 85t253.5 42q178 0 179 -92v-258q0 -410 65 -410q39 0 39 55v578q0 43 129 85t276.5 42t147.5 -80v-969q0 -457 -618 -456q-326 0 -443 63q-51 29 -51 59q0 49 41 165t76 116q8 0 57 -12q152 -41 253 -41t133 22.5t32 77.5v121h-17 q-10 -10 -30.5 -26.5t-96 -43t-169 -26.5t-164 29.5t-111.5 79.5t-63 134q-39 133 -39 377z" />
<glyph unicode="z" horiz-adv-x="1179" d="M51 307q0 25 95.5 149t285.5 349h-313q-51 0 -51 143q0 94 25.5 167t66.5 73h829q98 0 98 -311q0 -29 -84.5 -153t-254.5 -341h329q51 0 51 -143q0 -94 -26.5 -167t-65.5 -73h-882q-55 0 -79 97t-24 210z" />
<glyph unicode="{" horiz-adv-x="954" d="M20 586q0 111 33 114q63 10 78 119q10 63 10 170t33 192t91.5 136t119.5 85t139 48q135 23 218 23t101.5 -15.5t18.5 -100.5t-31.5 -147.5t-85.5 -62.5q-80 0 -105.5 -69.5t-25.5 -183.5t-13 -160t-32 -75q-39 -53 -88 -79q131 -88 131 -285q0 -152 28 -212t101 -60 q121 0 121 -234q0 -45 -23.5 -71.5t-82 -26.5t-107.5 5t-126 18.5t-138 47t-119 84.5q-125 109 -125 332q0 229 -43 264q-16 14 -35 21q-43 10 -43 123z" />
<glyph unicode="|" horiz-adv-x="573" d="M92 -207v1540q0 121 262 121q127 0 127 -84v-1577q0 -90 -278 -90q-111 0 -111 90z" />
<glyph unicode="}" horiz-adv-x="954" d="M92 -211q0 233 121 234q74 0 101.5 60t27.5 166.5t14.5 159t32.5 83.5q41 59 84 88q-14 4 -42 29.5t-46 49.5q-45 70 -45 177q0 172 -25.5 241.5t-105.5 69.5q-53 0 -85 62.5t-32 147.5t18.5 100.5t82 15.5t112.5 -5.5t126 -18.5t138.5 -47t118.5 -85q125 -109 125 -332 q0 -225 47 -264q12 -10 25.5 -13t23.5 -12q25 -20 25 -99t-12.5 -104.5t-30 -30.5t-35.5 -20q-43 -33 -43 -264q0 -223 -124 -331.5t-259 -133.5q-135 -23 -213 -22.5t-101.5 27t-23.5 71.5z" />
<glyph unicode="~" horiz-adv-x="1148" d="M82 1434q0 35 111.5 99t185.5 64t181.5 -34.5t154.5 -34.5q14 0 101 34.5t127 34.5t82 -75.5t42 -110.5q0 -31 -105.5 -96.5t-184.5 -65.5t-188.5 36t-141 36t-121.5 -36t-127 -36t-77 73t-40 112z" />
<glyph unicode="&#xa2;" horiz-adv-x="1116" d="M51 592q0 498 379 592v82q0 121 262 120q127 0 127 -83v-103q139 -10 197.5 -48t58.5 -117t-31.5 -178t-82.5 -99q-16 0 -99.5 34.5t-144 34.5t-92 -48t-31.5 -186t28.5 -188.5t89 -50.5t150.5 41t101 41q39 0 74.5 -92t35.5 -164q0 -158 -254 -188v-101q0 -90 -278 -90 q-111 0 -111 90v111q-379 92 -379 590z" />
<glyph unicode="&#xa3;" horiz-adv-x="1216" d="M20 793.5q0 70.5 17.5 125t37 70t40.5 15.5h65q0 162 49.5 281.5t135.5 184.5q164 127 375.5 127t287.5 -35.5t76 -101.5q0 -113 -26.5 -205t-67.5 -92q-25 0 -72 14.5t-92 14.5t-74 -47t-33 -94l-4 -47h273q20 0 36.5 -36t16.5 -91q0 -262 -92 -263h-240 q0 -131 -82 -174v-12q389 20 457 21q51 0 51 -175q0 -152 -18 -196q-31 -72 -47 -76l-7 -2h-952q-100 0 -100 188q0 229 71 230q96 0 97 108q0 45 -15 88h-108q-27 0 -41.5 54.5t-14.5 125z" />
<glyph unicode="&#xa5;" horiz-adv-x="1429" d="M20 1317q0 43 137.5 90t288.5 47q195 0 207 -115l56 -551h22l39 537q4 57 145.5 93t268.5 36t176 -37t49 -77t-369 -685h162q31 0 31 -75q0 -39 -24.5 -86.5t-47.5 -47.5h-164v-79h164q31 0 31 -76q0 -39 -25.5 -85t-46.5 -46h-123v-101q0 -27 -124.5 -43t-248.5 -16 t-161 13.5t-37 45.5v101h-197q-31 0 -30 84q0 41 25.5 82t49.5 41h152v79h-156q-31 0 -30 82q0 43 25.5 85t49.5 42h64q-359 599 -359 662z" />
<glyph unicode="&#xa9;" horiz-adv-x="1402" d="M51 606q0 295 125 441q53 63 142.5 100t176.5 48t207.5 11t206.5 -11t175.5 -48t143.5 -100.5t89 -175t35 -281.5t-47.5 -296t-138.5 -192.5t-201.5 -93t-263 -26.5t-263 26.5t-200.5 93.5q-187 135 -187 504zM223 604q0 -262 123 -360.5t355.5 -98.5t354.5 98.5 t122 360.5q0 281 -142 365q-72 43 -147.5 58t-175 15t-164 -8t-130 -34.5t-104.5 -73.5q-92 -107 -92 -322zM424 600q0 303 295 303q195 0 194 -76q0 -37 -14 -83t-41 -46q-8 0 -61.5 13.5t-77 13.5t-43 -31.5t-19.5 -93.5q0 -123 64 -123q20 0 73.5 16.5t63.5 16.5 q25 0 39 -46t14 -81q0 -80 -215 -80q-76 0 -159 41q-49 27 -81 92.5t-32 163.5z" />
<glyph unicode="&#xad;" d="M61 535.5q0 70.5 45.5 143.5t88.5 73h823q53 0 53 -134q0 -68 -43 -148.5t-82 -80.5h-829q-23 0 -39.5 38t-16.5 108.5z" />
<glyph unicode="&#xae;" horiz-adv-x="1402" d="M51 606q0 295 125 441q53 63 142.5 100t176.5 48t207.5 11t206.5 -11t175.5 -48t143.5 -100.5t89 -175t35 -281.5t-47.5 -296t-138.5 -192.5t-201.5 -93t-263 -26.5t-263 26.5t-200.5 93.5q-187 135 -187 504zM223 604q0 -262 123 -360.5t355.5 -98.5t354.5 98.5 t122 360.5q0 281 -142 365q-72 43 -147.5 58t-175 15t-164 -8t-130 -34.5t-104.5 -73.5q-92 -107 -92 -322zM467 332v522q0 14 12 23q27 16 187.5 16t228.5 -38t68 -164t-93 -177q109 -125 109 -165t-145 -40q-51 0 -64.5 4t-17.5 19l-64 149l-14 2v-151q0 -23 -103.5 -23 t-103.5 23zM674 627h24q27 0 41.5 12t14.5 53q0 63 -49 64h-31v-129z" />
<glyph unicode="&#xb4;" horiz-adv-x="778" d="M102 1412.5q0 64.5 153 124.5t277 60q47 0 95.5 -77.5t48.5 -192.5q0 -31 -177 -54.5t-294 -23.5q-39 0 -71 49.5t-32 114z" />
<glyph unicode="&#x2000;" horiz-adv-x="798" />
<glyph unicode="&#x2001;" horiz-adv-x="1597" />
<glyph unicode="&#x2002;" horiz-adv-x="798" />
<glyph unicode="&#x2003;" horiz-adv-x="1597" />
<glyph unicode="&#x2004;" horiz-adv-x="532" />
<glyph unicode="&#x2005;" horiz-adv-x="399" />
<glyph unicode="&#x2006;" horiz-adv-x="266" />
<glyph unicode="&#x2007;" horiz-adv-x="266" />
<glyph unicode="&#x2008;" horiz-adv-x="198" />
<glyph unicode="&#x2009;" horiz-adv-x="319" />
<glyph unicode="&#x200a;" horiz-adv-x="88" />
<glyph unicode="&#x2010;" d="M61 535.5q0 70.5 45.5 143.5t88.5 73h823q53 0 53 -134q0 -68 -43 -148.5t-82 -80.5h-829q-23 0 -39.5 38t-16.5 108.5z" />
<glyph unicode="&#x2011;" d="M61 535.5q0 70.5 45.5 143.5t88.5 73h823q53 0 53 -134q0 -68 -43 -148.5t-82 -80.5h-829q-23 0 -39.5 38t-16.5 108.5z" />
<glyph unicode="&#x2012;" d="M61 535.5q0 70.5 45.5 143.5t88.5 73h823q53 0 53 -134q0 -68 -43 -148.5t-82 -80.5h-829q-23 0 -39.5 38t-16.5 108.5z" />
<glyph unicode="&#x2013;" horiz-adv-x="1378" d="M61 535.5q0 70.5 45.5 143.5t88.5 73h1069q53 0 53 -134q0 -68 -43 -148.5t-82 -80.5h-1075q-23 0 -39.5 38t-16.5 108.5z" />
<glyph unicode="&#x2014;" horiz-adv-x="1953" d="M61 535.5q0 70.5 45.5 143.5t88.5 73h1699q53 0 54 -134q0 -68 -43 -148.5t-82 -80.5h-1706q-23 0 -39.5 38t-16.5 108.5z" />
<glyph unicode="&#x2018;" horiz-adv-x="561" d="M61 1225q0 373 295 372q59 0 86 -96q27 -102 31 -205q6 -152 6 -292q0 -109 -332 -109q-57 0 -71.5 74t-14.5 256z" />
<glyph unicode="&#x2019;" horiz-adv-x="561" d="M82 1489q0 109 332 108q57 0 71.5 -73.5t14.5 -253.5q0 -375 -295 -375q-59 0 -86 96q-27 102 -31 205q-6 152 -6 293z" />
<glyph unicode="&#x201c;" horiz-adv-x="1157" d="M61 1225q0 373 295 372q59 0 86 -96q27 -102 31 -205q6 -152 6 -292q0 -109 -332 -109q-57 0 -71.5 74t-14.5 256zM657 1225q0 373 295 372q82 0 105 -200q18 -154 18 -393q0 -109 -332 -109q-57 0 -71.5 74t-14.5 256z" />
<glyph unicode="&#x201d;" horiz-adv-x="1157" d="M82 1489q0 109 332 108q57 0 71.5 -73.5t14.5 -253.5q0 -375 -295 -375q-82 0 -107 203q-16 151 -16 391zM678 1489q0 109 332 108q57 0 71.5 -73.5t14.5 -253.5q0 -375 -295 -375q-59 0 -84 96q-29 102 -33 205q-6 152 -6 293z" />
<glyph unicode="&#x2022;" horiz-adv-x="768" d="M92 614q0 150 78 208.5t212 58.5t214 -58.5t80 -208.5q0 -279 -292 -279t-292 279z" />
<glyph unicode="&#x2026;" horiz-adv-x="1941" d="M143 192.5q0 120.5 56.5 160.5t163 40t162 -40t55.5 -160.5t-55.5 -165.5t-163 -45t-163 45t-55.5 165.5zM782 192.5q0 120.5 56.5 160.5t163 40t163 -40t56.5 -160.5t-56.5 -165.5t-164 -45t-163 45t-55.5 165.5zM1423 192.5q0 120.5 55.5 160.5t162 40t163 -40 t56.5 -160.5t-55.5 -165.5t-163 -45t-163 45t-55.5 165.5z" />
<glyph unicode="&#x202f;" horiz-adv-x="319" />
<glyph unicode="&#x205f;" horiz-adv-x="399" />
<glyph unicode="&#x20ac;" horiz-adv-x="1280" d="M20 555q0 41 26 82t50 41h80v80h-84q-31 0 -31 82q0 43 26 85t50 42h58q47 289 223 391q111 66 211 78q131 18 231.5 18t125 -1t66.5 -5t65.5 -13.5t47.5 -25.5q47 -31 47 -106q0 -215 -118 -216q-20 0 -100.5 23t-127.5 23q-68 0 -84 -166h242q31 0 31 -76 q0 -39 -25.5 -86t-46.5 -47h-207v-80h207q31 0 31 -76q0 -39 -25.5 -85t-46.5 -46h-156q20 -168 78 -168q51 0 139.5 21.5t110.5 21.5q104 0 105 -207q0 -96 -77 -126.5t-227.5 -30.5t-217 6t-155.5 33.5t-150.5 76.5t-116 144.5t-78.5 228.5h-146q-31 0 -31 84z" />
<glyph unicode="&#x2122;" horiz-adv-x="1343" d="M51 1315q0 139 37 139h463q23 0 22 -72q0 -147 -34 -147h-107v-268q0 -20 -168 -21q-72 0 -71 21v268h-119q-23 0 -23 80zM610 967v450q0 37 174 37q92 0 105 -41l61 -188h11l49 180q6 20 55 34.5t138 14.5t89 -29v-458q0 -20 -168 -21q-78 0 -77 21l14 200h-8l-43 -188 q-6 -18 -63.5 -18t-59.5 18l-49 188h-9q18 -145 19 -200q0 -20 -168 -21q-70 1 -70 21z" />
<glyph unicode="&#xe000;" horiz-adv-x="1190" d="M0 1190h1190v-1190h-1190v1190z" />
</font>
</defs>
</svg>
